<mxfile host="app.diagrams.net" modified="2021-10-11T10:27:39.839Z" agent="5.0 (Macintosh; Intel Mac OS X 10_15_7) AppleWebKit/605.1.15 (KHTML, like Gecko) Version/15.0 Safari/605.1.15" etag="TWU8gKGAdgf80PcAOS-Z" version="15.5.0" type="github">
  <diagram id="6a731a19-8d31-9384-78a2-239565b7b9f0" name="Page-1">
    <mxGraphModel dx="819" dy="974" grid="1" gridSize="10" guides="1" tooltips="1" connect="1" arrows="1" fold="1" page="1" pageScale="1" pageWidth="1169" pageHeight="827" background="none" math="0" shadow="0">
      <root>
        <mxCell id="0" />
        <mxCell id="1" parent="0" />
        <mxCell id="K7p8cpwG9Fq1Gu8viyMJ-57" value="" style="edgeStyle=orthogonalEdgeStyle;rounded=0;orthogonalLoop=1;jettySize=auto;html=1;" edge="1" parent="1" source="K7p8cpwG9Fq1Gu8viyMJ-55" target="K7p8cpwG9Fq1Gu8viyMJ-56">
          <mxGeometry relative="1" as="geometry" />
        </mxCell>
        <mxCell id="K7p8cpwG9Fq1Gu8viyMJ-55" value="start" style="strokeWidth=2;html=1;shape=mxgraph.flowchart.start_1;whiteSpace=wrap;" vertex="1" parent="1">
          <mxGeometry x="520" y="40" width="120" height="40" as="geometry" />
        </mxCell>
        <mxCell id="K7p8cpwG9Fq1Gu8viyMJ-59" value="" style="edgeStyle=orthogonalEdgeStyle;rounded=0;orthogonalLoop=1;jettySize=auto;html=1;" edge="1" parent="1" source="K7p8cpwG9Fq1Gu8viyMJ-56" target="K7p8cpwG9Fq1Gu8viyMJ-58">
          <mxGeometry relative="1" as="geometry" />
        </mxCell>
        <mxCell id="K7p8cpwG9Fq1Gu8viyMJ-56" value="printRockPaperScissors()" style="whiteSpace=wrap;html=1;strokeWidth=2;" vertex="1" parent="1">
          <mxGeometry x="520" y="120" width="120" height="40" as="geometry" />
        </mxCell>
        <mxCell id="K7p8cpwG9Fq1Gu8viyMJ-62" value="" style="edgeStyle=orthogonalEdgeStyle;rounded=0;orthogonalLoop=1;jettySize=auto;html=1;" edge="1" parent="1" source="K7p8cpwG9Fq1Gu8viyMJ-58" target="K7p8cpwG9Fq1Gu8viyMJ-61">
          <mxGeometry relative="1" as="geometry" />
        </mxCell>
        <mxCell id="K7p8cpwG9Fq1Gu8viyMJ-58" value="recieveInput()" style="shape=parallelogram;perimeter=parallelogramPerimeter;whiteSpace=wrap;html=1;fixedSize=1;strokeWidth=2;" vertex="1" parent="1">
          <mxGeometry x="520" y="200" width="120" height="40" as="geometry" />
        </mxCell>
        <mxCell id="K7p8cpwG9Fq1Gu8viyMJ-64" value="" style="edgeStyle=orthogonalEdgeStyle;rounded=0;orthogonalLoop=1;jettySize=auto;html=1;" edge="1" parent="1" source="K7p8cpwG9Fq1Gu8viyMJ-61">
          <mxGeometry relative="1" as="geometry">
            <mxPoint x="580" y="180" as="targetPoint" />
            <Array as="points">
              <mxPoint x="780" y="320" />
              <mxPoint x="780" y="180" />
            </Array>
          </mxGeometry>
        </mxCell>
        <mxCell id="K7p8cpwG9Fq1Gu8viyMJ-70" value="&lt;font style=&quot;font-size: 15px&quot;&gt;default&lt;/font&gt;" style="edgeLabel;html=1;align=center;verticalAlign=middle;resizable=0;points=[];" vertex="1" connectable="0" parent="K7p8cpwG9Fq1Gu8viyMJ-64">
          <mxGeometry x="-0.6042" relative="1" as="geometry">
            <mxPoint as="offset" />
          </mxGeometry>
        </mxCell>
        <mxCell id="K7p8cpwG9Fq1Gu8viyMJ-69" value="&lt;font style=&quot;font-size: 16px&quot;&gt;0&lt;/font&gt;" style="edgeStyle=orthogonalEdgeStyle;rounded=0;orthogonalLoop=1;jettySize=auto;html=1;" edge="1" parent="1" source="K7p8cpwG9Fq1Gu8viyMJ-61" target="K7p8cpwG9Fq1Gu8viyMJ-68">
          <mxGeometry relative="1" as="geometry" />
        </mxCell>
        <mxCell id="K7p8cpwG9Fq1Gu8viyMJ-72" value="" style="edgeStyle=orthogonalEdgeStyle;rounded=0;orthogonalLoop=1;jettySize=auto;html=1;" edge="1" parent="1" source="K7p8cpwG9Fq1Gu8viyMJ-61" target="K7p8cpwG9Fq1Gu8viyMJ-71">
          <mxGeometry relative="1" as="geometry" />
        </mxCell>
        <mxCell id="K7p8cpwG9Fq1Gu8viyMJ-61" value="" style="rhombus;whiteSpace=wrap;html=1;strokeWidth=2;" vertex="1" parent="1">
          <mxGeometry x="520" y="280" width="120" height="80" as="geometry" />
        </mxCell>
        <mxCell id="K7p8cpwG9Fq1Gu8viyMJ-65" value="prinErrorMessage()" style="whiteSpace=wrap;html=1;strokeWidth=2;" vertex="1" parent="1">
          <mxGeometry x="720" y="230" width="120" height="40" as="geometry" />
        </mxCell>
        <mxCell id="K7p8cpwG9Fq1Gu8viyMJ-68" value="End" style="ellipse;whiteSpace=wrap;html=1;strokeWidth=2;" vertex="1" parent="1">
          <mxGeometry x="280" y="300" width="120" height="40" as="geometry" />
        </mxCell>
        <mxCell id="K7p8cpwG9Fq1Gu8viyMJ-74" value="" style="edgeStyle=orthogonalEdgeStyle;rounded=0;orthogonalLoop=1;jettySize=auto;html=1;" edge="1" parent="1" source="K7p8cpwG9Fq1Gu8viyMJ-71" target="K7p8cpwG9Fq1Gu8viyMJ-73">
          <mxGeometry relative="1" as="geometry" />
        </mxCell>
        <mxCell id="K7p8cpwG9Fq1Gu8viyMJ-71" value="makeRandomNumber()" style="whiteSpace=wrap;html=1;strokeWidth=2;" vertex="1" parent="1">
          <mxGeometry x="520" y="400" width="120" height="40" as="geometry" />
        </mxCell>
        <mxCell id="K7p8cpwG9Fq1Gu8viyMJ-76" value="" style="edgeStyle=orthogonalEdgeStyle;rounded=0;orthogonalLoop=1;jettySize=auto;html=1;" edge="1" parent="1" source="K7p8cpwG9Fq1Gu8viyMJ-73">
          <mxGeometry relative="1" as="geometry">
            <mxPoint x="580" y="170" as="targetPoint" />
            <Array as="points">
              <mxPoint x="860" y="520" />
            </Array>
          </mxGeometry>
        </mxCell>
        <mxCell id="K7p8cpwG9Fq1Gu8viyMJ-83" value="사용자 = 컴퓨터" style="edgeLabel;html=1;align=center;verticalAlign=middle;resizable=0;points=[];" vertex="1" connectable="0" parent="K7p8cpwG9Fq1Gu8viyMJ-76">
          <mxGeometry x="-0.8424" y="-4" relative="1" as="geometry">
            <mxPoint x="53" y="-4" as="offset" />
          </mxGeometry>
        </mxCell>
        <mxCell id="K7p8cpwG9Fq1Gu8viyMJ-78" value="" style="edgeStyle=orthogonalEdgeStyle;rounded=0;orthogonalLoop=1;jettySize=auto;html=1;" edge="1" parent="1" source="K7p8cpwG9Fq1Gu8viyMJ-73" target="K7p8cpwG9Fq1Gu8viyMJ-77">
          <mxGeometry relative="1" as="geometry" />
        </mxCell>
        <mxCell id="K7p8cpwG9Fq1Gu8viyMJ-73" value="" style="rhombus;whiteSpace=wrap;html=1;strokeWidth=2;" vertex="1" parent="1">
          <mxGeometry x="520" y="480" width="120" height="80" as="geometry" />
        </mxCell>
        <mxCell id="K7p8cpwG9Fq1Gu8viyMJ-75" value="printSame()" style="whiteSpace=wrap;html=1;strokeWidth=2;" vertex="1" parent="1">
          <mxGeometry x="800" y="360" width="120" height="40" as="geometry" />
        </mxCell>
        <mxCell id="K7p8cpwG9Fq1Gu8viyMJ-80" value="" style="edgeStyle=orthogonalEdgeStyle;rounded=0;orthogonalLoop=1;jettySize=auto;html=1;" edge="1" parent="1" source="K7p8cpwG9Fq1Gu8viyMJ-77" target="K7p8cpwG9Fq1Gu8viyMJ-79">
          <mxGeometry relative="1" as="geometry" />
        </mxCell>
        <mxCell id="K7p8cpwG9Fq1Gu8viyMJ-77" value="printMukjipa(turnOwner: String)" style="whiteSpace=wrap;html=1;strokeWidth=2;" vertex="1" parent="1">
          <mxGeometry x="520" y="600" width="120" height="40" as="geometry" />
        </mxCell>
        <mxCell id="K7p8cpwG9Fq1Gu8viyMJ-82" value="" style="edgeStyle=orthogonalEdgeStyle;rounded=0;orthogonalLoop=1;jettySize=auto;html=1;" edge="1" parent="1" source="K7p8cpwG9Fq1Gu8viyMJ-79" target="K7p8cpwG9Fq1Gu8viyMJ-81">
          <mxGeometry relative="1" as="geometry" />
        </mxCell>
        <mxCell id="K7p8cpwG9Fq1Gu8viyMJ-79" value="&lt;span style=&quot;color: rgb(0, 0, 0); font-family: helvetica; font-size: 12px; font-style: normal; font-weight: normal; letter-spacing: normal; text-align: center; text-indent: 0px; text-transform: none; word-spacing: 0px; background-color: rgb(248, 249, 250); text-decoration: none; display: inline; float: none;&quot;&gt;recieveInput()&lt;/span&gt;" style="shape=parallelogram;perimeter=parallelogramPerimeter;whiteSpace=wrap;html=1;fixedSize=1;strokeWidth=2;" vertex="1" parent="1">
          <mxGeometry x="520" y="680" width="120" height="40" as="geometry" />
        </mxCell>
        <mxCell id="K7p8cpwG9Fq1Gu8viyMJ-85" value="" style="edgeStyle=orthogonalEdgeStyle;rounded=0;orthogonalLoop=1;jettySize=auto;html=1;" edge="1" parent="1" source="K7p8cpwG9Fq1Gu8viyMJ-81">
          <mxGeometry relative="1" as="geometry">
            <mxPoint x="580" y="570" as="targetPoint" />
            <Array as="points">
              <mxPoint x="780" y="800" />
              <mxPoint x="780" y="570" />
              <mxPoint x="580" y="570" />
            </Array>
          </mxGeometry>
        </mxCell>
        <mxCell id="K7p8cpwG9Fq1Gu8viyMJ-87" value="default" style="edgeLabel;html=1;align=center;verticalAlign=middle;resizable=0;points=[];fontSize=15;" vertex="1" connectable="0" parent="K7p8cpwG9Fq1Gu8viyMJ-85">
          <mxGeometry x="-0.825" y="-3" relative="1" as="geometry">
            <mxPoint x="38" y="-3" as="offset" />
          </mxGeometry>
        </mxCell>
        <mxCell id="K7p8cpwG9Fq1Gu8viyMJ-89" value="" style="edgeStyle=orthogonalEdgeStyle;rounded=0;orthogonalLoop=1;jettySize=auto;html=1;fontSize=16;" edge="1" parent="1" source="K7p8cpwG9Fq1Gu8viyMJ-81" target="K7p8cpwG9Fq1Gu8viyMJ-88">
          <mxGeometry relative="1" as="geometry" />
        </mxCell>
        <mxCell id="K7p8cpwG9Fq1Gu8viyMJ-81" value="" style="rhombus;whiteSpace=wrap;html=1;strokeWidth=2;" vertex="1" parent="1">
          <mxGeometry x="520" y="760" width="120" height="80" as="geometry" />
        </mxCell>
        <mxCell id="K7p8cpwG9Fq1Gu8viyMJ-86" value="prinErrorMessage()" style="whiteSpace=wrap;html=1;strokeWidth=2;" vertex="1" parent="1">
          <mxGeometry x="720" y="720" width="120" height="40" as="geometry" />
        </mxCell>
        <mxCell id="K7p8cpwG9Fq1Gu8viyMJ-91" value="" style="edgeStyle=orthogonalEdgeStyle;rounded=0;orthogonalLoop=1;jettySize=auto;html=1;fontSize=16;" edge="1" parent="1" source="K7p8cpwG9Fq1Gu8viyMJ-88" target="K7p8cpwG9Fq1Gu8viyMJ-90">
          <mxGeometry relative="1" as="geometry" />
        </mxCell>
        <mxCell id="K7p8cpwG9Fq1Gu8viyMJ-88" value="&lt;span style=&quot;color: rgb(0, 0, 0); font-family: helvetica; font-size: 12px; font-style: normal; font-weight: normal; letter-spacing: normal; text-align: center; text-indent: 0px; text-transform: none; word-spacing: 0px; background-color: rgb(248, 249, 250); text-decoration: none; display: inline; float: none;&quot;&gt;makeRandomNumber()&lt;/span&gt;" style="whiteSpace=wrap;html=1;strokeWidth=2;" vertex="1" parent="1">
          <mxGeometry x="280" y="780" width="120" height="40" as="geometry" />
        </mxCell>
        <mxCell id="K7p8cpwG9Fq1Gu8viyMJ-93" value="" style="edgeStyle=orthogonalEdgeStyle;rounded=0;orthogonalLoop=1;jettySize=auto;html=1;fontSize=16;entryX=0;entryY=0.5;entryDx=0;entryDy=0;exitX=1;exitY=0.5;exitDx=0;exitDy=0;" edge="1" parent="1" source="K7p8cpwG9Fq1Gu8viyMJ-90" target="K7p8cpwG9Fq1Gu8viyMJ-77">
          <mxGeometry relative="1" as="geometry">
            <mxPoint x="399.9999999999998" y="660.0000000000002" as="sourcePoint" />
            <mxPoint x="519.9999999999998" y="599.9999999999998" as="targetPoint" />
            <Array as="points">
              <mxPoint x="500" y="680" />
              <mxPoint x="500" y="620" />
            </Array>
          </mxGeometry>
        </mxCell>
        <mxCell id="K7p8cpwG9Fq1Gu8viyMJ-94" value="사용자 != 컴퓨터" style="edgeLabel;html=1;align=center;verticalAlign=middle;resizable=0;points=[];fontSize=16;" vertex="1" connectable="0" parent="K7p8cpwG9Fq1Gu8viyMJ-93">
          <mxGeometry x="-0.3455" y="1" relative="1" as="geometry">
            <mxPoint y="21" as="offset" />
          </mxGeometry>
        </mxCell>
        <mxCell id="K7p8cpwG9Fq1Gu8viyMJ-96" value="" style="edgeStyle=orthogonalEdgeStyle;rounded=0;orthogonalLoop=1;jettySize=auto;html=1;fontSize=16;" edge="1" parent="1" source="K7p8cpwG9Fq1Gu8viyMJ-90" target="K7p8cpwG9Fq1Gu8viyMJ-95">
          <mxGeometry relative="1" as="geometry" />
        </mxCell>
        <mxCell id="K7p8cpwG9Fq1Gu8viyMJ-90" value="" style="rhombus;whiteSpace=wrap;html=1;strokeWidth=2;" vertex="1" parent="1">
          <mxGeometry x="280" y="640" width="120" height="80" as="geometry" />
        </mxCell>
        <mxCell id="K7p8cpwG9Fq1Gu8viyMJ-98" value="" style="edgeStyle=orthogonalEdgeStyle;rounded=0;orthogonalLoop=1;jettySize=auto;html=1;fontSize=16;entryX=0.5;entryY=1;entryDx=0;entryDy=0;" edge="1" parent="1" source="K7p8cpwG9Fq1Gu8viyMJ-95" target="K7p8cpwG9Fq1Gu8viyMJ-68">
          <mxGeometry relative="1" as="geometry">
            <mxPoint x="340" y="460" as="targetPoint" />
            <Array as="points">
              <mxPoint x="340" y="490" />
              <mxPoint x="340" y="490" />
            </Array>
          </mxGeometry>
        </mxCell>
        <mxCell id="K7p8cpwG9Fq1Gu8viyMJ-95" value="printWinner()" style="whiteSpace=wrap;html=1;strokeWidth=2;" vertex="1" parent="1">
          <mxGeometry x="280" y="560" width="120" height="40" as="geometry" />
        </mxCell>
      </root>
    </mxGraphModel>
  </diagram>
</mxfile>
